<svg xmlns="http://www.w3.org/2000/svg" xmlns:xlink="http://www.w3.org/1999/xlink" width="554.705" height="446.071" viewBox="0 0 554.705 446.071"><defs><clipPath id="a"><rect width="325.49" height="209.54" transform="translate(152.09 40.89)"/></clipPath></defs><g transform="translate(-0.004 -1.879)"><ellipse cx="30.55" cy="30.17" rx="30.55" ry="30.17" transform="translate(137.23 7.93)" fill="#d3e8ee"/><ellipse cx="30.55" cy="30.17" rx="30.55" ry="30.17" transform="translate(137.23 4.01)" fill="#0076fa"/><ellipse cx="24.83" cy="24.53" rx="24.83" ry="24.53" transform="translate(142.95 9.65)" fill="#fff"/><path d="M192.62,34.18c0,.65-.03,1.3-.08,1.94a24.864,24.864,0,0,0-49.52,0c-.05-.64-.08-1.28-.08-1.94a24.842,24.842,0,0,1,49.68,0Z" fill="#ccd3e6"/><path d="M167.78,36.73a.63.63,0,0,1-.5-.25L155.1,20.28a.611.611,0,0,1,.13-.86.624.624,0,0,1,.87.13l11.89,15.8,13.51-5.86a.619.619,0,0,1,.82.32.608.608,0,0,1-.32.81l-13.96,6.05A.616.616,0,0,1,167.78,36.73Z" fill="#363638"/><path d="M6.91,106.98c13.81,8.8,25.34-1.84,33.43,8.01s20.48,11.91,27.27,2.93,11.28-15.96,23.38-9.68,28.34.58,26.57-11.13c-.44-2.92-.92-6.07-1.39-9.17-.13-.84-.26-1.69-.39-2.52-.03-.19-.06-.38-.09-.58A24.707,24.707,0,0,0,90.28,63.78c-5.09.24-9.87,2.04-12.93,6.81-9.57,14.92-16.15-2.02-28.55-.85C34.53,71.11,33.15,84.8,22.45,84.67,7.57,84.5-6.9,98.18,6.91,106.98Z" fill="#007d55"/><path d="M26.69,98.81l89.48-10.86c-.13-.84-.26-1.69-.39-2.52L26.38,96.28a1.267,1.267,0,0,0-1.11,1.42A1.286,1.286,0,0,0,26.69,98.81Z" fill="#04593a"/><path d="M.42,21.55C3.96,37.54,19.63,38.17,18.39,50.86s6.06,22.91,17.2,21.36,19.26-3.31,23.37,9.69,19.62,20.46,26.66,10.93c1.75-2.37,3.65-4.94,5.5-7.46.51-.69,1.01-1.38,1.51-2.05.12-.16.23-.31.35-.47A24.7,24.7,0,0,0,89.91,50c-3.77-3.43-8.42-5.54-13.95-4.33-17.32,3.78-9.99-12.85-19.58-20.79-11.05-9.15-21.71-.45-29.18-8.11C16.78,6.12-3.12,5.56.42,21.55Z" fill="#00b570"/><path d="M20.18,29.76,91.11,85.37c.51-.69,1.01-1.38,1.51-2.05L21.75,27.76a1.275,1.275,0,0,0-1.79.22A1.262,1.262,0,0,0,20.18,29.76Z" fill="#007d55"/><path d="M472.44,85.54l2.6.05,1.38.03,3.9.08s39.61-58.9,18.27-80.16c-6.57-6.54-19-2.19-18,26.14C481.5,57.95,472.44,85.54,472.44,85.54Z" fill="#007d55"/><path d="M475.03,85.6l1.38.03c7.16-14.42,11.28-30.12,13.52-41.18a194.879,194.879,0,0,0,3.33-22.84.621.621,0,1,0-1.24-.08,192.45,192.45,0,0,1-3.31,22.7C486.45,55.33,482.29,71.16,475.03,85.6Z" fill="#04593a"/><path d="M459.79,88.71l3.13,2.09,1.66,1.11,4.7,3.13s94.23-40.99,84.76-83.56C551.13-1.63,532.57-6,511.7,29.35,492.36,62.11,459.79,88.71,459.79,88.71Z" fill="#00b570"/><path d="M462.92,90.79l1.66,1.11c19.97-12.01,37.24-27.95,48.59-39.7a280.722,280.722,0,0,0,21.86-25.27.9.9,0,0,0-1.45-1.07,276.669,276.669,0,0,1-21.73,25.11C500.44,62.77,483.03,78.84,462.92,90.79Z" fill="#007d55"/><path d="M535.64,134.6c-.01-52.63-43.83-110.3-98.36-113.78-.96-.06-1.93-.11-2.9-.16-78.18-3.64-84.14,91.71-154.88,102.47S154.74,79.59,70.1,115.01C-5.92,146.83-26.51,325.6,196.85,332.77,375.55,338.51,535.67,291.62,535.64,134.6Z" fill="#d3e8ee"/><g opacity="0.26"><path d="M299.04,146.06a144.229,144.229,0,0,1-65.73-27.86C204.27,96.29,143.51,59,85.56,77.57c-79.94,25.62-80.3,99.74-59.48,140S194.57,375.72,386,356.96c171.31-16.79,204.69-208.94,113.33-243.71C420.09,83.1,393.05,159.94,299.04,146.06Z" fill="#d3e8ee"/></g><g opacity="0.5"><ellipse cx="8.44" cy="9.09" rx="8.44" ry="9.09" transform="translate(536.78 93.53)" fill="#ccd3e6"/></g><path d="M466.93,365.09a5.465,5.465,0,0,1,6.65,2.23c2.31,3.85-.81,9.25-6.59,8.19h0C461.69,372.95,462.62,366.75,466.93,365.09Z" fill="#d3e8ee"/><path d="M498.07,350.37a11.111,11.111,0,1,1-14.89-5.02A11.106,11.106,0,0,1,498.07,350.37Z" fill="#d3e8ee"/><ellipse cx="197.94" cy="10.21" rx="197.94" ry="10.21" transform="translate(120.41 406.65)" fill="#d3e8ee"/><path d="M452.43,388.27H425V416.8h32.08V392.92A4.66,4.66,0,0,0,452.43,388.27Z" fill="#d3e8ee"/><rect width="95.22" height="61.13" transform="translate(278.26 327.15)" fill="#d3e8ee"/><path d="M446.28,416.8H183.6V404.2a15.923,15.923,0,0,1,15.92-15.92H430.36a15.923,15.923,0,0,1,15.92,15.92Z" fill="#fff"/><rect width="95.22" height="61.13" transform="translate(266.59 327.15)" fill="#fff"/><path d="M266.59,345.92l95.21-7.63.02-11.14H266.71Z" fill="#d3e8ee"/><path d="M530.8,74.72V314.44a12.72,12.72,0,0,1-12.72,12.72H111.53a12.72,12.72,0,0,1-12.72-12.72V74.72A12.72,12.72,0,0,1,111.53,62H518.08A12.72,12.72,0,0,1,530.8,74.72Z" fill="#ccd3e6"/><path d="M530.8,74.72V296.71H491.47V62h26.61A12.72,12.72,0,0,1,530.8,74.72Z" fill="#001030"/><path d="M514.63,74.72V314.44a12.72,12.72,0,0,1-12.72,12.72H111.53a12.72,12.72,0,0,1-12.72-12.72V74.72A12.72,12.72,0,0,1,111.53,62H501.91c.19,0,.38,0,.56.01.14.01.28.01.41.03h.02l.3.03a4.1,4.1,0,0,1,.49.06c.11.01.21.03.32.05l.15.03c.1.02.21.03.31.06A12.712,12.712,0,0,1,514.63,74.72Z" fill="#fff"/><path d="M504.47,62.26c-.1-.03-.21-.04-.31-.06l-.15-.03c-.11-.02-.21-.04-.32-.05l-.49-.06-.3-.03h-.02l-.41-.03H111.53A12.72,12.72,0,0,0,98.81,74.72V296.71H514.63V74.72A12.731,12.731,0,0,0,504.47,62.26Zm-6.34,212.28a3.461,3.461,0,0,1-3.46,3.46H118.76a3.461,3.461,0,0,1-3.46-3.46V81.95a3.461,3.461,0,0,1,3.46-3.46H494.67a3.461,3.461,0,0,1,3.46,3.46Z" fill="#0c375a"/><path d="M498.13,81.95V274.53a3.461,3.461,0,0,1-3.46,3.46H118.76a3.461,3.461,0,0,1-3.46-3.46V81.95a3.461,3.461,0,0,1,3.46-3.46H494.67A3.455,3.455,0,0,1,498.13,81.95Z" fill="#d3e8ee"/><path d="M498.13,81.95v18.17H115.3V81.95a3.461,3.461,0,0,1,3.46-3.46H494.67A3.455,3.455,0,0,1,498.13,81.95Z" fill="#fff"/><path d="M468.48,89.02a2.94,2.94,0,1,1-2.94-2.94A2.945,2.945,0,0,1,468.48,89.02Z" fill="#fd615b"/><circle cx="2.94" cy="2.94" r="2.94" transform="translate(472.13 86.08)" fill="#0592f5"/><path d="M450.55,92.13H151.47a2.744,2.744,0,0,1-2.74-2.74v-.73a2.744,2.744,0,0,1,2.74-2.74H450.54a2.744,2.744,0,0,1,2.74,2.74v.73A2.736,2.736,0,0,1,450.55,92.13Z" fill="#cedcec"/><path d="M129.12,89.02V91.9a.528.528,0,0,1-.79.46l-2.49-1.44-2.49-1.44a.526.526,0,0,1,0-.91l2.49-1.44,2.49-1.44a.528.528,0,0,1,.79.46Z"/><path d="M133.5,89.02V91.9a.528.528,0,0,0,.79.46l2.49-1.44,2.49-1.44a.526.526,0,0,0,0-.91l-2.49-1.44-2.49-1.44a.528.528,0,0,0-.79.46Z"/><path d="M481.97,91.48l-.13-.13a.73.73,0,0,1,0-1.04l3.95-3.95a.73.73,0,0,1,1.04,0l.13.13a.73.73,0,0,1,0,1.04l-3.95,3.95A.749.749,0,0,1,481.97,91.48Z" fill="#363638"/><path d="M486.83,91.48l.13-.13a.73.73,0,0,0,0-1.04l-3.95-3.95a.73.73,0,0,0-1.04,0l-.13.13a.73.73,0,0,0,0,1.04l3.95,3.95A.749.749,0,0,0,486.83,91.48Z" fill="#363638"/><circle cx="9.89" cy="9.89" r="9.89" transform="translate(244.16 8.41)" fill="#fed843"/><path d="M263.94,18.3a9.893,9.893,0,0,0-9.89-9.89V28.2a9.908,9.908,0,0,0,9.89-9.9Z" fill="#fabe2c"/><path d="M256.17,17.78a6.638,6.638,0,0,0-1.92-.56,5.187,5.187,0,0,1-1.28-.34c-.15-.08-.15-.1-.15-.23,0-.08.13-.22.37-.34a1.993,1.993,0,0,1,1.89.05,1.1,1.1,0,1,0,1.32-1.76,3.585,3.585,0,0,0-1.25-.58v-.27a1.1,1.1,0,0,0-2.2,0v.3a4.354,4.354,0,0,0-.74.28,2.577,2.577,0,0,0-1.58,2.31,2.34,2.34,0,0,0,1.31,2.17,6.638,6.638,0,0,0,1.92.56,5.187,5.187,0,0,1,1.28.34c.15.08.15.1.15.23,0,.08-.13.22-.37.34a1.972,1.972,0,0,1-1.88-.05,1.1,1.1,0,1,0-1.32,1.76,3.585,3.585,0,0,0,1.25.58v.27a1.1,1.1,0,0,0,2.2,0v-.3a3.886,3.886,0,0,0,.74-.28,2.587,2.587,0,0,0,1.59-2.31,2.41,2.41,0,0,0-1.33-2.17Z" fill="#fabe2c"/><path d="M255.07,16.37a1.1,1.1,0,1,0,1.32-1.76,3.585,3.585,0,0,0-1.25-.58v-.27a1.1,1.1,0,0,0-1.1-1.1V16.1a1.669,1.669,0,0,1,1.03.27Z" fill="#ff9100"/><path d="M255.15,22.84v-.3a3.886,3.886,0,0,0,.74-.28,2.587,2.587,0,0,0,1.59-2.31,2.34,2.34,0,0,0-1.31-2.17,6.638,6.638,0,0,0-1.92-.56,1.415,1.415,0,0,1-.2-.04v2.24a4.315,4.315,0,0,1,1.08.3c.15.08.15.1.15.23,0,.08-.13.22-.37.34a2.1,2.1,0,0,1-.86.21v3.44a1.1,1.1,0,0,0,1.1-1.1Z" fill="#ff9100"/><path d="M263.54,31.65a2.183,2.183,0,0,0-3.06-.55l-5.89,4.13a5.379,5.379,0,0,1-.55.24,7.662,7.662,0,0,1-5.74.39l-6.71-2.24a1.089,1.089,0,0,1,.64-2.08c.02,0,7.54,2.46,7.54,2.46a2.2,2.2,0,1,0,1.36-4.18l-10.27-3.39a9.6,9.6,0,0,0-10.85,3.43l-1.41,3.98v4.63l13.1,2.96a20.822,20.822,0,0,0,4.55.54h.24a20.315,20.315,0,0,0,7.54-1.59,20.959,20.959,0,0,0,2.81-1.39l6.13-4.29a2.149,2.149,0,0,0,.57-3.05Z" fill="#ffe1ba"/><path d="M262.99,34.7a2.2,2.2,0,0,0-2.51-3.61l-5.89,4.13a5.379,5.379,0,0,1-.55.24v4.91a20.959,20.959,0,0,0,2.81-1.39Z" fill="#ffbfab"/><path d="M229.72,41.38h-2.2a1.1,1.1,0,0,1-1.1-1.1V29.29a1.1,1.1,0,0,1,1.1-1.1h2.2a1.1,1.1,0,0,1,1.1,1.1V40.28A1.1,1.1,0,0,1,229.72,41.38Z" fill="#0c375a"/><path d="M450.12,278.47H192.68a6.632,6.632,0,0,1-6.63-6.63V133.14a6.632,6.632,0,0,1,6.63-6.63H450.13a6.632,6.632,0,0,1,6.63,6.63V271.83A6.636,6.636,0,0,1,450.12,278.47Z" fill="#fff"/><path d="M264.4,204.26H205.05a1.652,1.652,0,0,1-1.65-1.65h0a1.652,1.652,0,0,1,1.65-1.65H264.4a1.652,1.652,0,0,1,1.65,1.65h0A1.652,1.652,0,0,1,264.4,204.26Z" fill="#ccd3e6"/><path d="M264.4,190.31H205.05a1.652,1.652,0,0,1-1.65-1.65h0a1.652,1.652,0,0,1,1.65-1.65H264.4a1.652,1.652,0,0,1,1.65,1.65h0A1.652,1.652,0,0,1,264.4,190.31Z" fill="#ccd3e6"/><path d="M264.4,218.21H205.05a1.652,1.652,0,0,1-1.65-1.65h0a1.652,1.652,0,0,1,1.65-1.65H264.4a1.652,1.652,0,0,1,1.65,1.65h0A1.652,1.652,0,0,1,264.4,218.21Z" fill="#ccd3e6"/><path d="M446.77,204.26H387.42a1.652,1.652,0,0,1-1.65-1.65h0a1.652,1.652,0,0,1,1.65-1.65h59.35a1.652,1.652,0,0,1,1.65,1.65h0A1.652,1.652,0,0,1,446.77,204.26Z" fill="#ccd3e6"/><path d="M446.77,190.31H387.42a1.652,1.652,0,0,1-1.65-1.65h0a1.652,1.652,0,0,1,1.65-1.65h59.35a1.652,1.652,0,0,1,1.65,1.65h0A1.652,1.652,0,0,1,446.77,190.31Z" fill="#ccd3e6"/><path d="M446.77,218.21H387.42a1.652,1.652,0,0,1-1.65-1.65h0a1.652,1.652,0,0,1,1.65-1.65h59.35a1.652,1.652,0,0,1,1.65,1.65h0A1.652,1.652,0,0,1,446.77,218.21Z" fill="#ccd3e6"/><path d="M186.04,254.87H456.75v22.19a1.406,1.406,0,0,1-1.41,1.4H187.44a1.406,1.406,0,0,1-1.41-1.4V254.87Z" fill="#2a363f"/><path d="M430.17,263.61v-2h2.5v-1.78h-3.39a.892.892,0,0,0-.89.89v2.89h1.78Z" fill="#fff"/><path d="M430.17,267.17h-1.78v3.04a.892.892,0,0,0,.89.89h3.39v-1.78h-2.5v-2.15Z" fill="#fff"/><path d="M437.88,263.61h1.78v-2.89a.892.892,0,0,0-.89-.89h-3.26v1.78h2.37v2Z" fill="#fff"/><path d="M437.88,267.17v2.15h-2.37v1.78h3.26a.892.892,0,0,0,.89-.89v-3.04h-1.78Z" fill="#fff"/><path d="M201.81,265.85v-5.62l4.87,2.81,4.87,2.81-4.87,2.82-4.87,2.81Z" fill="#fff"/><path d="M228.83,271.03H227.5a.845.845,0,0,1-.84-.84v-8.55a.845.845,0,0,1,.84-.84h1.33a.845.845,0,0,1,.84.84v8.55A.839.839,0,0,1,228.83,271.03Z" fill="#fff"/><path d="M235.14,271.03h-1.33a.845.845,0,0,1-.84-.84v-8.55a.845.845,0,0,1,.84-.84h1.33a.845.845,0,0,1,.84.84v8.55A.845.845,0,0,1,235.14,271.03Z" fill="#fff"/><rect width="270.71" height="4.44" transform="translate(186.04 250.43)" fill="#ccd3e6"/><rect width="138.91" height="4.44" transform="translate(186.04 250.43)" fill="#fd615b"/><path d="M413.47,233.16h3.05v6.69h4.09v2.37h-7.14v-9.06Z" fill="#363638"/><path d="M421.45,233.16h3.05v9.06h-3.05Z" fill="#363638"/><path d="M435.66,233.16l-3.83,9.06h-3L425,233.16h3.29l2.16,5.29,2.21-5.29Z" fill="#363638"/><path d="M443.49,239.92v2.3h-7.53v-9.06h7.36v2.3h-4.36v1.06h3.83v2.2h-3.83v1.19h4.53Z" fill="#363638"/><path d="M408.44,237.62a3.72,3.72,0,1,1-3.72-3.72A3.719,3.719,0,0,1,408.44,237.62Z" fill="#fd615b"/><path d="M219.11,240.14c0,2.07-1.96,3.41-4.77,3.41s-4.77-1.34-4.77-3.41a2.787,2.787,0,0,1,1.43-2.45,2.614,2.614,0,0,1-1.05-2.1c0-1.93,1.81-3.18,4.39-3.18s4.39,1.25,4.39,3.18a2.614,2.614,0,0,1-1.05,2.1A2.787,2.787,0,0,1,219.11,240.14Zm-3.61-.12a1.172,1.172,0,1,0-1.17,1.11A1.082,1.082,0,0,0,215.5,240.02Zm-2.02-4.27a.852.852,0,1,0,.85-.91A.826.826,0,0,0,213.48,235.75Z" fill="#363638"/><path d="M219.78,237.98c0-3.53,2.01-5.57,4.82-5.57s4.82,2.04,4.82,5.57-2.01,5.56-4.82,5.56S219.78,241.51,219.78,237.98Zm6.03,0c0-2.05-.52-2.69-1.22-2.69s-1.22.64-1.22,2.69.52,2.69,1.22,2.69S225.81,240.03,225.81,237.98Z" fill="#363638"/><path d="M203.32,234.99a3.27,3.27,0,1,1-3.27-3.27A3.265,3.265,0,0,1,203.32,234.99Z" fill="#fd615b"/><path d="M206.17,243.27H193.94a6.328,6.328,0,0,1,6.02-3.89h.18A6.348,6.348,0,0,1,206.17,243.27Z" fill="#fd615b"/><g clip-path="url(#a)"><path d="M335.55,83.03s4.66-3.37,5.73-8.64c.95-4.64-2.96-4.61-2.96-4.61s3.16-5.05,1.22-8.8a6.855,6.855,0,0,0-7.2-3.76s1.24-7.49-10.67-6.81-18.99,1.18-20.89,6.34a4.777,4.777,0,0,0,2.97,6.63s-4.79,2.95-2.42,5.98a5.048,5.048,0,0,0,5.3,2.11Z" fill="#001030"/><path d="M311.49,81.12s-1.51-5.55-6.02-4.48-5.28,15.89,3.22,15.78Z" fill="#ed7462"/><path d="M333.05,108.36s1.07,1.87-7.2,4.21a17.8,17.8,0,0,1-12.31-1.41,10.055,10.055,0,0,1-2.28-2.3c1.31-6.3.78-9.17.46-10.14-.05-.15-.08-.22-.08-.22l21.52-10.87Z" fill="#ff9d8a"/><path d="M330.16,96.1s-5.1,14.3-16.62,15.05a4.74,4.74,0,0,1-2.28-2.3c1.31-6.3.78-9.17.46-10.14Z" fill="#b76c62"/><path d="M321.83,103.6c-8.89,1.7-15.96-2.15-16.78-9.77-.2-1.84-.29-4.5-.31-7.27v-.08c0-.59-.01-1.18-.01-1.78V83.41c.02-4.94.18-9.42.18-9.42,1.33-12.27,13.5-16.8,23.21-12.1s5.91,19.62,5.85,26.92S329.45,102.15,321.83,103.6Z" fill="#ff9d8a"/><path d="M319.98,89.05s-1.23,4.08-4.56,4.76c-3.78.78-4.66-3.96-4.66-3.96Z" fill="#fff"/><path d="M322.3,76.95c2.52.52,3.22-2.18.94-3.57a6.812,6.812,0,0,0-3.35-1.18c-3.32,0-3.41,2.34-1.74,3.28A17.044,17.044,0,0,0,322.3,76.95Z" fill="#00312d"/><path d="M307.99,75.7c-2.56.24-2.96-2.52-.54-3.65a6.619,6.619,0,0,1,3.46-.8c3.3.36,3.13,2.7,1.37,3.45A17.645,17.645,0,0,1,307.99,75.7Z" fill="#00312d"/><path d="M305.74,86.69c-.35-.02-.69-.07-1.01-.12v-.08c0-.59-.01-1.18-.01-1.78V83.42a10.322,10.322,0,0,1,1.24.01c2.24.16,4,1.01,3.93,1.91C309.84,86.24,307.98,86.84,305.74,86.69Z" fill="#ed7462"/><path d="M302.17,79.53a5.533,5.533,0,1,1,4.4,6.47A5.535,5.535,0,0,1,302.17,79.53Zm.8.15a4.723,4.723,0,1,0,5.52-3.76A4.725,4.725,0,0,0,302.97,79.68Z" fill="#fff"/><path d="M313.24,87.4a.372.372,0,0,1-.2-.07c-2.02-1.37-2.4-2.1-2.46-2.23a.427.427,0,0,1,.03-.38l2.88-4.39c.01-.01.02-.03.03-.04.62-.74.73-2.26.79-4.02a.4.4,0,0,1,.79.03c-.07,1.9-.2,3.55-.96,4.48l-2.72,4.15a9.771,9.771,0,0,0,2.06,1.73.4.4,0,0,1,.11.55A.351.351,0,0,1,313.24,87.4Z" fill="#00312d"/><path d="M329.07,84.88c-.06.9-1.93,1.5-4.16,1.35s-4-1.01-3.93-1.91,1.93-1.5,4.16-1.35S329.13,83.97,329.07,84.88Z" fill="#ed7462"/><path d="M315.35,79.8a5.533,5.533,0,1,1,4.4,6.47A5.535,5.535,0,0,1,315.35,79.8Zm.79.16a4.723,4.723,0,1,0,5.52-3.76A4.725,4.725,0,0,0,316.14,79.96Z" fill="#fff"/><path d="M312.68,80.94h0a.412.412,0,0,0,.48-.33c.01-.04.19-1.05.95-1.01.85.04,1.17.98,1.18.98a.4.4,0,0,0,.77-.25,2.265,2.265,0,0,0-1.91-1.54,1.87,1.87,0,0,0-1.79,1.69A.4.4,0,0,0,312.68,80.94Z" fill="#fff"/><path d="M325.71,80.14a.418.418,0,0,0,.43-.2c2.17-3.96,6.26-2.04,6.44-1.96a.4.4,0,1,0,.35-.73c-.05-.02-4.96-2.34-7.5,2.3a.4.4,0,0,0,.16.55C325.63,80.11,325.67,80.13,325.71,80.14Z" fill="#fff"/><path d="M304.91,74.83h0a14.784,14.784,0,0,1,3.54-12.03c6.1-7.1,18.63-6.79,23.68.36s2.63,13.42,2.63,13.42-2.01.74-2.97,4.69l-2.67-.09a19.428,19.428,0,0,1-.01-8.67c1.02-5.38-8.5-10.7-14.94-9.44a11.664,11.664,0,0,0-8.45,7.13A20.078,20.078,0,0,0,304.91,74.83Z" fill="#001030"/><path d="M325.64,66.09s-4.5-1.73-6.66-.86-5.3,2-7.67.31-5.06,3.38-5.06,3.38,2.95-9.01,10.38-7.19S324.03,62.86,325.64,66.09Z" fill="#001030"/><path d="M314.31,95.51c-.17-.04-.27-.09-.29-.09a.4.4,0,0,1,.3-.74,2.552,2.552,0,0,0,2.5-.42.4.4,0,1,1,.52.6A3.244,3.244,0,0,1,314.31,95.51Z" fill="#ed7462"/><path d="M332.23,78.79s2.55-4.1,6.73-2.09,1.77,16.66-6.51,14.73Z" fill="#ff9d8a"/><path d="M334.11,86.23a.188.188,0,0,1-.08-.02.4.4,0,0,1-.27-.49c.05-.18,1.34-4.41,5.2-5.03a.4.4,0,0,1,.13.79c-3.37.54-4.55,4.43-4.56,4.46A.413.413,0,0,1,334.11,86.23Z" fill="#00312d"/><path d="M337.69,84.92a.408.408,0,0,1-.27-.13c-.01-.01-.76-.85-1.66-1.68a.4.4,0,0,1,.54-.58c.93.86,1.68,1.7,1.71,1.74a.4.4,0,0,1-.03.56A.5.5,0,0,1,337.69,84.92Z" fill="#00312d"/><path d="M321.28,80.75c0,.89-.42,1.6-.92,1.6s-.91-.72-.91-1.61.42-1.6.92-1.6S321.29,79.86,321.28,80.75Z" fill="#00312d"/><path d="M310.96,80.84c0,.89-.42,1.6-.92,1.6s-.91-.72-.91-1.61.42-1.6.92-1.6S310.96,79.95,310.96,80.84Z" fill="#00312d"/><path d="M320.76,90.71a8.42,8.42,0,0,1-2.54,4.23s-2.14,1.48-3.71,1.02-5.72-2.04-4.2-5.12l4.58-.75s1.01-1.56-3.13-.93c-3.99.6-2.96,4.01-3.38,5.02s-2.12,2.89-2.88,1.68c0,0,.74,5.23,4.93,7.32,4.6,2.29,10.74,3.72,16.05-3.12s5.71-17.12,5.71-17.12l-1.83-.31s-1.37,12.06-5,12.95-4.06-3.16-3.76-4.17c.12-.4.58-1.55-.03-2.22-.92-1.01-3.5-.82-4.69-.64-3.21.49-1.66,1.5-1.66,1.5S320.28,89.6,320.76,90.71Z" fill="#001030"/></g><g clip-path="url(#a)"><path d="M230.36,148.26s-1.64,9.98-8.99,11.77c-5.94,1.44-11.53-4.26-13.46-6.5-.46-.54-.71-.88-.71-.88a9.5,9.5,0,0,1-1.1.04c-1.55-.02-4.3-.34-5.38-2.24-1.53-2.71,4.05-4.56,4.05-4.56s-2.86-2.56-2.15-4.42c.71-1.83,4.55-2.21,4.55-2.21s-4.14-2.69-2.75-5.03c2.08-3.52,6.36.35,6.7.57-.27-.31-5.63-5.86-2.7-6.85,2.56-.87,6.77,2.01,9.54,4.86.44.45.69.71.69.71s.17-.13.46-.32c1.39-.93,5.63-3.41,8.34-1.14C230.73,134.78,230.36,148.26,230.36,148.26Z" fill="#ff9b79"/><path d="M222.69,154.39a.584.584,0,0,1-.74-.85,5.237,5.237,0,0,0,.89-4.37c-.97-3.74-5.97-6.32-6.02-6.35a.579.579,0,1,1,.53-1.03c.22.11,5.52,2.86,6.62,7.09a6.352,6.352,0,0,1-1.05,5.31A.63.63,0,0,1,222.69,154.39Z" fill="#f56c63"/><path d="M217.59,140a1.818,1.818,0,0,1-.82,1.59,1.5,1.5,0,0,1-.38.19,4.386,4.386,0,0,1-1.05.24,4.234,4.234,0,0,1,.75.61,2.065,2.065,0,0,1,.45.68,1.517,1.517,0,0,1-.26,1.47c-.94,1.24-3.1,1.75-4.86,1.96a6.193,6.193,0,0,1,2.72,2.76,1.815,1.815,0,0,1-.23,1.78,3.473,3.473,0,0,1-1.26.93,19.051,19.051,0,0,1-4.73,1.31c-.47-.54-.71-.88-.71-.88a9.6,9.6,0,0,1-1.11.04.533.533,0,0,1,.3-.12c2.16-.25,5.86-1.01,6.58-1.98a.679.679,0,0,0,.06-.69c-.4-1.11-2.5-2.59-4.31-3.04a.583.583,0,0,1,.15-1.15c1.44.03,5.41-.22,6.47-1.63.15-.2.11-.32.09-.37a1.949,1.949,0,0,0-.88-.81,14.343,14.343,0,0,0-3.45-1.3.543.543,0,0,1-.3-.18.574.574,0,0,1-.13-.52.587.587,0,0,1,.71-.43c.2.05.62.15,1.14.32a13.662,13.662,0,0,0,2.64.1,2.3,2.3,0,0,0,.99-.27.665.665,0,0,0,.29-.62,3.69,3.69,0,0,0-.63-1.77.575.575,0,0,1,.05-.65.035.035,0,0,0,.01-.02.566.566,0,0,1,.94.06A5.177,5.177,0,0,1,217.59,140Z" fill="#f56c63"/><path d="M213.31,129.08a15.5,15.5,0,0,1,2.73,2.01c.83.79,1.35,1.19,1.92,1.71.04-.07-.04.06,0,0L206.75,85.22a.577.577,0,0,0-1.13.23l7.69,43.63Z" fill="#001030"/><path d="M223.06,155.5c-3.89,2.51-4.98.65-4.98.65l-1.97-11.17c.06-.06.11-.13.16-.19a1.517,1.517,0,0,0,.26-1.47,2.065,2.065,0,0,0-.45-.68,4.411,4.411,0,0,0-.45-.4l-.04-.24a4.25,4.25,0,0,0,.8-.2,2.69,2.69,0,0,0,.38-.19,1.722,1.722,0,0,0,.72-.94,2.883,2.883,0,0,0,1.75.78,5.239,5.239,0,0,0,.56.02Z" fill="#001030"/><path d="M226.44,138.06a18.8,18.8,0,0,1-3.83,2.57,6.572,6.572,0,0,1-3.38.81,2.9,2.9,0,0,1-2.11-1.19c-1.85-2.48-.27-5.73.84-7.44.44.45.69.71.69.71s.17-.13.46-.32c-.96,1.41-2.55,4.34-1.05,6.35a1.784,1.784,0,0,0,1.3.73c2.06.22,5.26-2.16,6.31-3.09a.581.581,0,1,1,.77.87Z" fill="#f56c63"/><path d="M286.47,126.52v-.02h0l-.01.06-.03.14-.07.34-.15.76c-.05.26-.11.52-.17.79s-.12.53-.18.81c-.25,1.08-.52,2.19-.81,3.3-.6,2.21-1.25,4.43-2,6.61s-1.53,4.36-2.41,6.48c-.45,1.06-.89,2.12-1.37,3.15-.45,1.05-.96,2.07-1.45,3.1-1.02,2.03-2.09,4.03-3.25,5.96-.27.49-.58.96-.87,1.44s-.58.96-.89,1.42c-.62.93-1.22,1.87-1.88,2.77-1.26,1.84-2.65,3.55-4.04,5.26-1.44,1.66-2.9,3.29-4.46,4.81-.39.38-.77.77-1.17,1.15l-1.21,1.09-.6.55-.15.14.08-.07.1-.09a3.651,3.651,0,0,1,.45-.32,7.136,7.136,0,0,1,2.17-1.01c.19-.05.34-.1.52-.13a2.333,2.333,0,0,1,.26-.04l.22-.04a3.218,3.218,0,0,1,.43-.03,1.932,1.932,0,0,1,.34-.01c.05,0,.12.01.16.01h.12a1.433,1.433,0,0,1,.23.03.59.59,0,0,1,.14.02l.07.02h.03c.17.05-.17,0-.67-.22a16.417,16.417,0,0,1-1.94-1.02c-.75-.44-1.55-.98-2.38-1.57-1.66-1.17-3.4-2.58-5.15-4.08s-3.5-3.11-5.24-4.79c-1.75-1.66-3.49-3.39-5.21-5.17s-3.45-3.57-5.14-5.4c-.85-.91-1.7-1.83-2.53-2.75l-2.43-2.67-18.82,14.12.63.95.59.88,1.19,1.73c.8,1.14,1.61,2.26,2.43,3.38q2.475,3.33,5.11,6.59c1.77,2.16,3.58,4.3,5.49,6.42.96,1.05,1.93,2.1,2.93,3.15s2.03,2.07,3.1,3.1a87.526,87.526,0,0,0,6.93,6.05c1.28.99,2.62,1.97,4.1,2.93a41.961,41.961,0,0,0,4.96,2.79,29.806,29.806,0,0,0,6.77,2.31l.51.1.55.09c.37.06.75.11,1.12.15.39.04.81.07,1.21.1l.61.03c.2.01.44.01.65.01.44,0,.88-.01,1.33-.04s.94-.08,1.41-.14c.24-.03.47-.06.71-.1s.49-.09.74-.14c.5-.11.98-.21,1.48-.35a20.352,20.352,0,0,0,5.73-2.67c.42-.29.83-.6,1.23-.92l.3-.24.27-.22.22-.19.86-.77,1.72-1.54c.56-.53,1.11-1.07,1.66-1.6,2.23-2.13,4.27-4.42,6.26-6.74,1.94-2.36,3.81-4.77,5.51-7.29,1.74-2.49,3.3-5.08,4.78-7.69l1.08-1.98c.36-.66.68-1.33,1.02-2s.68-1.34.99-2.01l.95-2.03a110.259,110.259,0,0,0,5.98-16.71c.76-2.85,1.43-5.72,1.95-8.65.26-1.46.51-2.93.7-4.44.05-.37.1-.75.14-1.14s.09-.76.13-1.16c.04-.38.08-.79.12-1.19l.11-1.44Z" fill="#ffb028"/><path d="M227.37,158.58a1.626,1.626,0,1,0,1.48-1.76A1.626,1.626,0,0,0,227.37,158.58Z" fill="#dc7f21"/><path d="M261.11,186.47a.692.692,0,0,0,.67-.53,52.209,52.209,0,0,0,1.13-12.02.69.69,0,0,0-1.38.04,51.614,51.614,0,0,1-1.09,11.64.692.692,0,0,0,.5.84A.554.554,0,0,0,261.11,186.47Z" fill="#dc7f21"/><path d="M265.55,181.45a.687.687,0,0,0,.62-1,55.747,55.747,0,0,0-3.4-6.01.69.69,0,1,0-1.08.86,55.561,55.561,0,0,1,3.24,5.77A.7.7,0,0,0,265.55,181.45Z" fill="#dc7f21"/><path d="M222.38,172.05a.7.7,0,0,0,.5-.21c5.81-5.99,18.91-15.45,19.04-15.54a.7.7,0,0,0-.81-1.13c-.13.1-13.34,9.63-19.23,15.7a.7.7,0,0,0,.5,1.18Z" fill="#dc7f21"/><path d="M227.99,166.93a.664.664,0,0,0,.44-.16.706.706,0,0,0,.09-.98l-7.01-8.41a.7.7,0,0,0-1.07.89l7.01,8.41A.724.724,0,0,0,227.99,166.93Z" fill="#dc7f21"/></g><g clip-path="url(#a)"><path d="M303.6,330.56l9.4-55.45.77-4.53-27.05-9.55-1.54-.54-6.44-2.27s-.52,2.37-1.32,6.45c-.1.49-.2,1.01-.3,1.55-2.54,13.11-7.3,40.14-8.59,64.35H303.6Z" fill="#363638"/><path d="M298.81,330.56c4.06-22.11,9.29-54.42,9.59-56.3a.741.741,0,0,0-.61-.84.733.733,0,0,0-.84.61c-.07.46-5.5,34.01-9.64,56.54h1.5Z" fill="#575759"/><path d="M358.33,240.52s2.04,19.31-2.36,30.06-61.27,5.22-75.76-4.46c-5.95-3.97,6.72-40.59,6.72-40.59Z" fill="#363638"/><path d="M277.12,266.22a16.641,16.641,0,0,0,2.52-.65,16.972,16.972,0,0,0,3.74-1.81,19.729,19.729,0,0,0,3.34-2.72c6.27-6.33,8.12-15.89,8.2-16.35a.728.728,0,1,0-1.43-.27c-.02.11-1.94,10.06-8.31,16.08a17.384,17.384,0,0,1-2.6,2.05,15.369,15.369,0,0,1-3.57,1.7c-.52.17-1.05.31-1.59.43C277.33,265.16,277.23,265.68,277.12,266.22Z" fill="#575759"/><path d="M312.22,271.62a.715.715,0,0,0,.69.74h.01a.717.717,0,0,0,.76-.67c.13-2.64.28-5.34.45-8.05.03-.48.06-.95.09-1.43.57-8.83,1.3-17.49,1.85-23.61.05-.49.09-.97.13-1.44.12-1.34.23-2.53.33-3.54-.48-.08-.97-.15-1.45-.23-.09,1.01-.21,2.21-.33,3.57-.04.46-.09.94-.13,1.44-.54,6.06-1.27,14.65-1.84,23.42-.03.48-.06.97-.1,1.45C312.51,266.08,312.35,268.89,312.22,271.62Z" fill="#575759"/><path d="M310.13,262.31a20,20,0,0,0,2.55.98,14.413,14.413,0,0,0,1.44.36,10.863,10.863,0,0,0,1.38.18,5.052,5.052,0,0,0,2.45-.38,2.978,2.978,0,0,0,1.66-2.23c.53-2.72,1.65-13.97,2.4-21.92.05-.49.09-.97.14-1.43.12-1.27.23-2.43.32-3.41l-1.45-.18c-.09.99-.2,2.16-.32,3.45-.04.46-.09.94-.13,1.43-.75,7.93-1.86,19.16-2.38,21.8a1.577,1.577,0,0,1-.88,1.23,5.139,5.139,0,0,1-3.08.04c-.49-.11-.98-.24-1.44-.39a16.6,16.6,0,0,1-2-.79.747.747,0,0,0-.98.32A.682.682,0,0,0,310.13,262.31Z" fill="#575759"/><path d="M351.26,330.56c2.25-20.58,4.85-48.12,6.32-64.08.05-.5.09-.98.13-1.46.65-7.04,1.05-11.47,1.05-11.47-3.49-1.45-9.82-.45-16.55,1.46l-1.46.42a201.409,201.409,0,0,0-24.65,9.64v65.49Z" fill="#363638"/><path d="M347.82,330.56c1.94-22.88,4.25-55.93,4.28-56.37a.732.732,0,1,0-1.46-.1c-.03.44-2.34,33.61-4.29,56.47Z" fill="#575759"/><path d="M336.71,244.68a37.988,37.988,0,0,0,4.03,10.75,23.581,23.581,0,0,0,7.51,8.33,17.086,17.086,0,0,0,9.33,2.73c.05-.5.09-.98.13-1.46a15.754,15.754,0,0,1-8.67-2.49,21.873,21.873,0,0,1-6.84-7.52,37.163,37.163,0,0,1-4.06-10.59.734.734,0,0,0-.85-.59A.725.725,0,0,0,336.71,244.68Z" fill="#575759"/></g><g clip-path="url(#a)"><path d="M278.21,239.3c15.74,14.7,52.98,22.51,81.67,8.54,3.15-8.6,6.61-39.31,7.54-48.48.19-1.83.34-3.66.46-5.49a239.729,239.729,0,0,0,.03-26.95c-.02-.5-.05-1.01-.07-1.52-.37-7.63-.94-15.55-1.46-23.95-1.05-16.64-6.6-26.89-16.25-28.42a39.464,39.464,0,0,1-10.65-3.21c-.32-.15-.62-.3-.92-.45a30.7,30.7,0,0,1-4.87-3.01l-12.7,5.37-8.81-5.37a16.417,16.417,0,0,1-6.7,5.6c-.28.13-.56.26-.84.38-7.64,3.3-16.54,2.64-18.38,11.85-1.15,5.78,3.27,17.68,2.81,41.8-.03,1.77-.09,3.6-.18,5.51-.08,1.78-.2,3.62-.34,5.53-.13,1.77-.29,3.6-.48,5.48-.16,1.65-.35,3.33-.56,5.07-.21,1.78-.45,3.59-.72,5.46C285.35,203.05,281.51,226.41,278.21,239.3Z" fill="#ffb028"/><path d="M351.95,244.32a.985.985,0,0,1-.17-.02.639.639,0,0,1-.45-.79c11.95-43.81,9.54-88.35,9.51-88.79a.646.646,0,1,1,1.29-.07c.03.45,2.45,45.19-9.55,89.21A.657.657,0,0,1,351.95,244.32Z" fill="#dc7f21"/><path d="M287.11,187.42a.693.693,0,0,0,.69-.62c1.43-12.67,1.45-37.88,1.45-38.14a.69.69,0,0,0-1.38,0c0,.25-.02,25.39-1.44,37.98a.7.7,0,0,0,.61.77A.17.17,0,0,0,287.11,187.42Z" fill="#dc7f21"/><path d="M316.59,235.14a1.626,1.626,0,1,0,1.48-1.76A1.626,1.626,0,0,0,316.59,235.14Z" fill="#dc7f21"/><path d="M316.33,242.99a1.626,1.626,0,1,0,1.48-1.76A1.626,1.626,0,0,0,316.33,242.99Z" fill="#dc7f21"/><path d="M297.38,156.67c-4.22-4.91-2.64-15.83-2.57-16.29a.691.691,0,0,1,.69-.59h14.33a.706.706,0,0,1,.69.59c.07.46,1.65,11.38-2.57,16.29a6.659,6.659,0,0,1-5.28,2.35A6.743,6.743,0,0,1,297.38,156.67Zm-1.27-15.5c-.26,2.31-.97,10.76,2.32,14.59a5.719,5.719,0,0,0,8.46,0c3.29-3.82,2.59-12.28,2.33-14.59Z" fill="#dc7f21"/></g><g clip-path="url(#a)"><path d="M333.48,102.61a10.808,10.808,0,0,1,8.14,8.38c-6.23,6.51-11.73,12.16-20.64,13.81V111.72A23.044,23.044,0,0,0,333.48,102.61Z" fill="#ffb028"/></g><g clip-path="url(#a)"><path d="M311.65,104.5s-5.71,1.22-7.93,8.53c5.75,7,8.83,9.64,17.26,11.78V111.73C320.99,111.72,316.29,111.64,311.65,104.5Z" fill="#ffb028"/></g><g clip-path="url(#a)"><path d="M308.44,206.19l3.7,8.93v.01l1.66,4.01,4.69,11.34,2.27-4.38.8-1.55,1.82-3.51.8-1.55,1.82-3.51.8-1.55,1.82-3.51v-.01l.81-1.54,1.7-3.3-.03-.36-.27-2.62-.6-5.93-.27-2.62-.6-5.94-.27-2.62-.6-5.93-.27-2.62-.6-5.94-.27-2.61-.61-5.94-.26-2.62-.61-5.93-.26-2.62-.61-5.93-.26-2.62-.61-5.94-.26-2.62-.63-6.13-4.53-.18-.14,1.02-.27,2.08-.62,4.71-.28,2.07-.62,4.71-.27,2.08-.62,4.71-.28,2.08-.62,4.71-.27,2.08-.62,4.71-.28,2.07-.62,4.71-.27,2.08-.63,4.71-.27,2.08-.62,4.71-.28,2.07-.62,4.71-.27,2.08-.62,4.71-.28,2.08-.62,4.71-.27,2.08Z" fill="#363638"/><path d="M318.3,131.45l5.83,5.83-.26-2.62-5.3-5.29Z" fill="#575759"/><path d="M317.4,138.23l7.6,7.61-.26-2.62-7.06-7.06Z" fill="#575759"/><path d="M316.51,145.02l9.36,9.37-.26-2.62-8.83-8.83Z" fill="#575759"/><path d="M315.61,151.81l11.13,11.13-.26-2.62-10.59-10.59Z" fill="#575759"/><path d="M314.72,158.6l12.9,12.89-.27-2.61-12.36-12.36Z" fill="#575759"/><path d="M313.82,165.38l14.67,14.67-.27-2.62L314.1,163.31Z" fill="#575759"/><path d="M312.93,172.17l16.43,16.43-.27-2.62L313.2,170.09Z" fill="#575759"/><path d="M312.03,178.96l18.2,18.2-.27-2.62L312.3,176.88Z" fill="#575759"/><path d="M311.13,185.74l19.97,19.97-.27-2.62-19.42-19.42Z" fill="#575759"/><path d="M310.24,192.53l18.38,18.38.81-1.54-18.92-18.92Z" fill="#575759"/><path d="M309.34,199.32,326,215.98l.8-1.55-17.18-17.19Z" fill="#575759"/><path d="M308.45,206.11l14.93,14.93.8-1.55-15.46-15.46Z" fill="#575759"/><path d="M312.14,215.13l1.66,4.01,6.96,6.96.8-1.55Z" fill="#575759"/><path d="M323.24,128.53l-2.25,3.35-2.28-3.53-.4,3.02,2.64,2.69,2.53-3.19Z" fill="#575759"/><path d="M327.03,122.89l-6.04,8.99-5.8-8.99,5.8-7.51Z" fill="#363638"/><path d="M330.55,129.04a.663.663,0,0,0,.43-.15c5.99-4.77,11.09-17.11,11.3-17.64a.691.691,0,0,0-1.28-.52c-.05.12-4.85,11.74-10.33,16.61l-9.11-12.37a.667.667,0,0,0-.57-.28.7.7,0,0,0-.56.29l-8.5,12.06c-1.3-2.34-4.71-8.56-7.57-14.33a.693.693,0,1,0-1.24.62c3.62,7.28,8.1,15.28,8.14,15.36a.683.683,0,0,0,.57.35.692.692,0,0,0,.6-.29l8.58-12.18,8.98,12.19a.72.72,0,0,0,.47.28Z" fill="#dc7f21"/><path d="M321,116.08a.691.691,0,0,0,.69-.69v-3.1a.69.69,0,1,0-1.38,0v3.1A.691.691,0,0,0,321,116.08Z" fill="#dc7f21"/></g><g clip-path="url(#a)"><path d="M424.63,124.06s6.26,6.32,12.45,3.86c4.99-1.99,6.1-8.94,6.34-11.53.06-.62.07-.99.07-.99a8.259,8.259,0,0,0,.81-.54c1.1-.8,2.91-2.43,2.71-4.35-.28-2.73-5.23-1.21-5.23-1.21s.75-3.3-.71-4.26c-1.44-.95-4.39.73-4.39.73s1.6-4.04-.59-5.01c-3.29-1.46-4.38,3.5-4.52,3.82.04-.36,1.6-15.57-1.01-14.79-2.28.68-4.38,13.4-4.91,16.85-.09.55-.13.86-.13.86s-.18-.01-.49,0c-1.47.04-5.78.43-6.57,3.43C417.5,114.57,424.63,124.06,424.63,124.06Z" fill="#ff9b79"/><path d="M437.45,113.31a5.437,5.437,0,0,0-.54,3.37,1.613,1.613,0,0,0,1.07,1.16,3.009,3.009,0,0,0,1.38.02,16.579,16.579,0,0,0,4.06-1.48c.06-.62.07-.99.07-.99a8.259,8.259,0,0,0,.81-.54.469.469,0,0,0-.28.07c-1.68.92-4.72,2.26-5.73,1.94a.586.586,0,0,1-.39-.46c-.28-1,.47-3.13,1.54-4.38a.513.513,0,0,0-.69-.75c-1.02.75-3.99,2.6-5.47,2.13-.21-.07-.24-.17-.26-.22a1.715,1.715,0,0,1,.22-1.03,12.133,12.133,0,0,1,1.82-2.69.516.516,0,0,0-.05-.72.512.512,0,0,0-.73.05,14.043,14.043,0,0,0-1.85,2.67,4.3,4.3,0,0,0-.43,1.28,1.721,1.721,0,0,0,.03.72,1.32,1.32,0,0,0,.93.92C434.27,114.79,436.08,114.06,437.45,113.31Z" fill="#f56c63"/><path d="M429.6,108.98a.514.514,0,0,1,.37.44,3.232,3.232,0,0,0,.45,1.59.613.613,0,0,0,.53.3,2.016,2.016,0,0,0,.85-.31,15.094,15.094,0,0,0,2.75-2.28.5.5,0,0,1-.12.28,13.124,13.124,0,0,0-1.82,2.69c-.1.07-.21.13-.31.19a4.01,4.01,0,0,1-.93.4,1.641,1.641,0,0,1-.37.05,1.606,1.606,0,0,1-1.4-.72,4.252,4.252,0,0,1-.65-2.12.5.5,0,0,1,.64-.52C429.59,108.98,429.59,108.98,429.6,108.98Z" fill="#f56c63"/><path d="M422.24,114.74a17.437,17.437,0,0,0,4.06-.11,5.771,5.771,0,0,0,2.83-1.14,2.574,2.574,0,0,0,.91-1.93c.06-2.72-2.73-4.24-4.4-4.91-.09.55-.13.86-.13.86s-.18-.01-.49,0c1.4.53,4.04,1.81,3.99,4.02a1.518,1.518,0,0,1-.56,1.18c-1.37,1.2-4.87,1.13-6.11,1a.5.5,0,0,0-.56.46A.531.531,0,0,0,422.24,114.74Z" fill="#f56c63"/><path d="M433.26,124.54a.533.533,0,0,0,.4-.33.507.507,0,0,0-.3-.66,4.641,4.641,0,0,1-2.87-2.68c-1.21-3.18,1.06-7.58,1.08-7.62a.512.512,0,0,0-.91-.47c-.1.2-2.5,4.86-1.13,8.46a5.571,5.571,0,0,0,3.46,3.27A.514.514,0,0,0,433.26,124.54Z" fill="#f56c63"/><path d="M357.06,116.67l10.7,9.3c1.71,1.6,3.43,3.18,5.15,4.76s3.43,3.15,5.15,4.7,3.44,3.09,5.16,4.6,3.44,2.99,5.15,4.4c1.69,1.42,3.39,2.8,4.99,3.98.79.59,1.55,1.12,2.18,1.53l.41.26.17.11a.158.158,0,0,1,.06.05.758.758,0,0,1,.13.14c.05.07.05.13.12.19a.793.793,0,0,0,.53.08,8.065,8.065,0,0,0,3-1.17,26.021,26.021,0,0,0,4.11-3.07,54.8,54.8,0,0,0,4.23-4.25A105.992,105.992,0,0,0,416.28,132c2.54-3.67,4.34-6.5,6.63-10.4a17.161,17.161,0,0,0,15.6,5.96,140.923,140.923,0,0,1-6.03,13.92,107.523,107.523,0,0,1-7.94,13.49,69.056,69.056,0,0,1-5.15,6.56,47.276,47.276,0,0,1-6.71,6.26,35.428,35.428,0,0,1-4.37,2.84,28.831,28.831,0,0,1-5.42,2.26,24.73,24.73,0,0,1-6.54,1.03,24.144,24.144,0,0,1-6.93-.88,25.369,25.369,0,0,1-3.21-1.14l-.74-.34-.63-.31c-.22-.1-.39-.2-.59-.3s-.39-.2-.56-.3c-1.45-.78-2.69-1.54-3.87-2.29-2.36-1.5-4.48-2.99-6.55-4.49s-4.05-3.04-6.01-4.57-3.88-3.07-5.77-4.64-3.77-3.13-5.62-4.72-3.68-3.19-5.5-4.8-3.62-3.24-5.41-4.89l-2.67-2.48-1.33-1.26c-.45-.43-.88-.83-1.35-1.29Z" fill="#ffb028"/><path d="M367.27,160.58a.628.628,0,0,1-.37-.12c-7.07-4.95-19.63-15.37-19.76-15.47a.646.646,0,0,1,.83-.99c.13.1,12.65,10.49,19.67,15.41a.653.653,0,0,1,.16.9A.624.624,0,0,1,367.27,160.58Z" fill="#dc7f21"/><path d="M352.65,149.31a.277.277,0,0,1-.09-.01l-4.98-.72a.646.646,0,0,1,.18-1.28l4.98.72a.651.651,0,0,1,.55.73A.638.638,0,0,1,352.65,149.31Z" fill="#dc7f21"/><path d="M435.04,135.6a.658.658,0,0,0,.34-.72.651.651,0,0,0-.78-.5c-9.38,2.04-14.04-6.9-14.09-6.99a.66.66,0,0,0-.88-.29h-.01a.651.651,0,0,0-.28.88c.05.1,5.19,9.93,15.54,7.68A.523.523,0,0,0,435.04,135.6Z" fill="#dc7f21"/><path d="M430.22,135.78a.667.667,0,0,0,.3-.32l3.09-7.21a.657.657,0,0,0-1.21-.51l-3.09,7.21a.653.653,0,0,0,.35.86A.725.725,0,0,0,430.22,135.78Z" fill="#dc7f21"/><path d="M424.69,128.85a1.143,1.143,0,1,0,.49-1.54A1.143,1.143,0,0,0,424.69,128.85Z" fill="#dc7f21"/><path d="M394.94,158.79a.655.655,0,0,0,.35-.48,28.781,28.781,0,0,1,1.92-6.55.652.652,0,0,0-.29-.88.644.644,0,0,0-.88.29A28.332,28.332,0,0,0,394,158.1a.658.658,0,0,0,.54.76A.683.683,0,0,0,394.94,158.79Z" fill="#dc7f21"/><path d="M399.21,157.31a.835.835,0,0,0,.12-.08.663.663,0,0,0,.08-.93,12.065,12.065,0,0,1-2.29-4.38.659.659,0,0,0-1.29.27,13.19,13.19,0,0,0,2.57,4.96A.663.663,0,0,0,399.21,157.31Z" fill="#dc7f21"/></g><ellipse cx="123.51" cy="7.52" rx="123.51" ry="7.52" transform="translate(1.93 432.91)" fill="#d3e8ee"/><path d="M117.73,231.23l12.48,45.62-4.45-5.13a22.726,22.726,0,0,0,5.66,2.02,40.964,40.964,0,0,0,6.81.87c2.41.13,4.91.1,7.48,0s5.18-.3,7.84-.53h.01a7.133,7.133,0,0,1,1.73,14.15c-2.74.44-5.53.85-8.39,1.18s-5.8.58-8.83.65a56.6,56.6,0,0,1-9.44-.52,39.2,39.2,0,0,1-9.91-2.74,7.76,7.76,0,0,1-4.29-4.65l-.16-.47L99.3,236.82a9.626,9.626,0,1,1,18.26-6.1A3.391,3.391,0,0,1,117.73,231.23Z" fill="#ff9b79"/><path d="M122.54,396.6a1.578,1.578,0,0,1-.56-.1L56.62,372.94a1.648,1.648,0,1,1,1.12-3.1L123.1,393.4a1.643,1.643,0,0,1,.99,2.11A1.663,1.663,0,0,1,122.54,396.6Z" fill="#dc7f21"/><path d="M54.46,396.6a1.649,1.649,0,0,1-.56-3.2l66.13-23.95a1.648,1.648,0,1,1,1.12,3.1L55.03,396.5A1.631,1.631,0,0,1,54.46,396.6Z" fill="#dc7f21"/><path d="M128.35,438.71a2.821,2.821,0,0,1-2.79-2.45l-11.8-88.14H64.36L52.74,436.26a2.824,2.824,0,1,1-5.6-.74l11.94-90.59a2.825,2.825,0,0,1,2.8-2.45h54.34a2.833,2.833,0,0,1,2.8,2.45l12.13,90.59a2.824,2.824,0,0,1-2.42,3.17C128.6,438.7,128.47,438.71,128.35,438.71Z" fill="#ffb028"/><path d="M100.48,345.3H65.19c-11.18,0-23.15-6.12-24.87-17.17a209.3,209.3,0,0,1-2.22-42.21,51.4,51.4,0,0,1,19.49-37.87h0s7.05,30.72-1.81,73.12C59.15,337.29,100.48,345.3,100.48,345.3Z" fill="#ffb028"/><path d="M93.13,165.12s-4.2-10.11-15.3-8.21c-7.76,1.33-11.07,11-10.61,25.94.67,21.73-6.69,34.83-6.69,34.83l9.76,2.22C70.28,219.9,95.12,182.64,93.13,165.12Z" fill="#001030"/><path d="M182.13,400.94H166.37s-3.65-17.5-4.87-27.31-1.86-33.07-1.86-33.07-12.56,4.08-38.86,2.54c-58.27-3.4-36.18-46.2-36.18-46.2,1.97,2.72,14.03.83,22.27,2.13,25.3,2.43,47.24,12.36,60.4,18.04a65.211,65.211,0,0,1,8.46,4.34c3.17,1.96,5.16,7.89,6.36,15.7C185.69,360.57,182.13,400.94,182.13,400.94Z" fill="#001030"/><path d="M168.32,392.51a.556.556,0,0,1-.55-.45c-2.27-11.26-3.04-25.27-3.65-36.52-.51-9.33-.99-18.15-2.19-19.21-.97-.86-5-.19-10.11.66-10.15,1.69-25.5,4.23-42.43.3-9.22-2.14-15.99-6.62-20.14-13.31-7.15-11.53-3.89-25.83-3.86-25.97a.565.565,0,1,1,1.1.26c-.03.14-3.18,14,3.72,25.12,3.98,6.42,10.52,10.72,19.43,12.8,16.71,3.89,31.92,1.36,41.98-.31,6.03-1,9.67-1.61,11.04-.39,1.48,1.31,1.9,7.76,2.57,19.99.61,11.22,1.37,25.18,3.63,36.36a.561.561,0,0,1-.44.66A.278.278,0,0,1,168.32,392.51Z" fill="#2d5887"/><path d="M182.43,392.81h-.01l-17.53-.38a.562.562,0,0,1-.55-.58.555.555,0,0,1,.58-.55l17.53.38a.565.565,0,0,1-.02,1.13Z" fill="#2d5887"/><path d="M181.69,421.14H170.57l-2.14-13.05-1.18-7.15h13.83l.21,7.15Z" fill="#ff9b79"/><path d="M181.69,421.14H170.57l-1.6-9.72-.54-3.33h12.86l.11,3.45Z" fill="#ffb028"/><path d="M181.4,411.54l-12.43-.12-.54-3.33h12.86Z" fill="#dc7f21"/><path d="M209.15,438.71H167.07a5.966,5.966,0,0,1-.55-2.34c-.26-3.56.87-9.24,1.43-12.82.07-.42.13-.81.17-1.16a12.08,12.08,0,0,0,.13-1.46,2.148,2.148,0,0,1,2.59-2.42c4.26,4.18,9.08-2.08,11.9-.03,0,0,.11.08.37.29.24.19.6.48,1.09.89.72.6,1.72,1.47,3.09,2.7,3.34,3.01,9.02,4.99,13.86,7.01.62.26,1.19.52,1.72.77.4.19.78.39,1.14.58,3.95,2.14,5.21,4.18,5.5,5.66A3.3,3.3,0,0,1,209.15,438.71Z" fill="#0076fa"/><path d="M204,430.72c-1.08.86-3.49,2.59-5.43,2.59a2.006,2.006,0,0,1-.25-.01c-1.37-.11-6.38-2.58-10.46-4.82-2.34-1.29-4.47-2.55-6.01-3.56-2.52-1.66-2.96-2.29-3.05-2.73-.37-1.66,2.38-2.82,4.3-3.42.24.19.6.48,1.09.89-2.39.65-4.36,1.67-4.26,2.26.23.49,2.72,2.39,8.68,5.65,4.54,2.49,8.85,4.5,9.81,4.58,1.3.1,3.2-1.07,4.44-2Q203.46,430.42,204,430.72Z" fill="#004ecb"/><path d="M209.15,438.71H167.07a5.966,5.966,0,0,1-.55-2.34H209.5A3.289,3.289,0,0,1,209.15,438.71Z" fill="#004ecb"/><path d="M171.36,438.71h-1.25a9.242,9.242,0,0,0,2.26-6.74,11.86,11.86,0,0,0-4.43-8.42c.07-.42.13-.81.17-1.16a12.866,12.866,0,0,1,5.26,9.53A10.172,10.172,0,0,1,171.36,438.71Z" fill="#004ecb"/><path d="M186.56,424.83a.695.695,0,0,1-.16-1.37l2.63-.65a.695.695,0,0,1,.33,1.35l-2.63.65A.984.984,0,0,1,186.56,424.83Z" fill="#fff"/><path d="M183.95,422.64a.695.695,0,0,1-.16-1.37l2.63-.65a.695.695,0,0,1,.33,1.35l-2.63.65A.5.5,0,0,1,183.95,422.64Z" fill="#fff"/><path d="M189.19,426.36a.695.695,0,0,1-.16-1.37l2.63-.65a.695.695,0,0,1,.33,1.35l-2.63.65A.984.984,0,0,1,189.19,426.36Z" fill="#fff"/><path d="M191.82,427.83a.695.695,0,0,1-.16-1.37l2.63-.65a.695.695,0,0,1,.33,1.35l-2.63.65A1.113,1.113,0,0,1,191.82,427.83Z" fill="#fff"/><path d="M194.69,429.19a.695.695,0,0,1-.16-1.37l2.63-.65a.695.695,0,0,1,.33,1.35l-2.63.65A1.116,1.116,0,0,1,194.69,429.19Z" fill="#fff"/><path d="M197.79,430.34a.695.695,0,0,1-.16-1.37l2.63-.65a.695.695,0,0,1,.33,1.35l-2.63.65A.468.468,0,0,1,197.79,430.34Z" fill="#fff"/><path d="M55.42,283.33s-.5,3.4,4.06,4.35l47.48,1.58a5.348,5.348,0,0,0,2.63-5.59C109.59,283.68,89.54,272.42,55.42,283.33Z" fill="#004ecb"/><path d="M107.61,299.03c-24.64,13.56-51.55,2.64-51.55,2.64a74.536,74.536,0,0,0,3-11.33c.82-4.29,1.28-8.07,1.49-10.06,10.48-.58,36.18-1.67,46.25.72l.08,4.03Z" fill="#ff9b79"/><path d="M89.4,292.53c-.18,1.27-.76,2.24-1.28,2.16s-.8-1.17-.62-2.44.76-2.24,1.28-2.16S89.59,291.26,89.4,292.53Z" fill="#f56c63"/><path d="M106.87,285.04c-10.49-.64-31.14-.86-47.82,5.31.82-4.29,1.28-8.07,1.49-10.06,10.48-.58,36.18-1.67,46.25.72Z" fill="#f56c63"/><path d="M118.58,265.54a7.356,7.356,0,0,1-.35.86c-.05.1-.1.2-.16.3a23.3,23.3,0,0,1-5.07,6.08c-.36.31-.7.6-1.01.86-.63.51-1.17.91-1.54,1.17-.34.24-.54.37-.54.37a.17.17,0,0,1-.01.07c-.02.18-.03.37-.05.58-.06.77-.11,1.7-.15,2.75-.03.85-.06,1.78-.08,2.78-.01.74-.03,1.52-.04,2.32-13.93-6.22-42.61-2.29-54.16-.35.21-1,.4-1.97.58-2.93a90.312,90.312,0,0,0,1.46-11.93,126.121,126.121,0,0,0-1.31-21.45c-.07-.53-.15-1.06-.22-1.6-.05-.35-.1-.69-.16-1.04-.39-2.58-.85-5.16-1.38-7.66-2.28-10.93-.68-22.4,10.4-23.76.8-.1,1.6-.19,2.37-.27,5.22-.56,9.52-.75,10.71-.79.22-.01.33-.01.33-.01l21.42,6.22,2.04.59c1.17.38,2.25.74,3.25,1.1.43.16.84.31,1.24.45,1.04.39,1.98.77,2.84,1.15a24.571,24.571,0,0,1,4.15,2.26c4.7,3.34,3.97,7.1,3.85,14.55v1.43c.01.96.04,1.92.1,2.88.08,1.41.21,2.8.36,4.17.06.55.12,1.1.19,1.64.06.51.13,1.02.19,1.52C118.68,256.35,119.74,262.06,118.58,265.54Z" fill="#0076fa"/><path d="M116.99,238.31v1.33l-4.5,2.82a.633.633,0,0,1-.44.09.658.658,0,0,1-.43-.28.641.641,0,0,1,.2-.87l4.77-2.99A.575.575,0,0,1,116.99,238.31Z" fill="#004ecb"/><path d="M87.31,262.42a.639.639,0,0,1-.47-.21.632.632,0,0,1,.05-.89l4.19-3.77a.63.63,0,1,1,.84.94l-4.19,3.77A.666.666,0,0,1,87.31,262.42Z" fill="#004ecb"/><path d="M117.82,249.83l-2.87,2.58a.614.614,0,0,1-.42.16.639.639,0,0,1-.47-.21.632.632,0,0,1,.05-.89l3.52-3.16C117.69,248.83,117.76,249.33,117.82,249.83Z" fill="#004ecb"/><path d="M78.82,247.26a.624.624,0,0,1-.1-.5.631.631,0,0,1,.76-.47l5.48,1.29a.632.632,0,1,1-.29,1.23l-5.48-1.29A.592.592,0,0,1,78.82,247.26Z" fill="#004ecb"/><path d="M59.25,258.02a.639.639,0,0,1-.47-.21.632.632,0,0,1,.05-.89l4.19-3.77a.63.63,0,0,1,.84.94l-4.19,3.77A.614.614,0,0,1,59.25,258.02Z" fill="#004ecb"/><path d="M108,257.12a.651.651,0,0,1,.35-.38.631.631,0,0,1,.83.33l2.25,5.17a.632.632,0,0,1-1.16.5l-2.25-5.17A.585.585,0,0,1,108,257.12Z" fill="#004ecb"/><path d="M118.58,265.54a7.356,7.356,0,0,1-.35.86c-.05.1-.1.2-.16.3l-3.06-.97a.586.586,0,0,1-.35-.28.6.6,0,0,1-.06-.51.625.625,0,0,1,.79-.41Z" fill="#004ecb"/><path d="M101.29,265.99a.648.648,0,0,1,.49.16.622.622,0,0,1,.04.89l-3.79,4.17a.63.63,0,1,1-.93-.85l3.79-4.17A.575.575,0,0,1,101.29,265.99Z" fill="#004ecb"/><path d="M99.06,256.37a.616.616,0,0,1-.42-.28.634.634,0,0,1,.2-.87l4.77-3a.631.631,0,1,1,.67,1.07l-4.77,3A.725.725,0,0,1,99.06,256.37Z" fill="#004ecb"/><path d="M102.1,238.22a.649.649,0,0,1,.16.49.642.642,0,0,1-.69.56l-5.6-.61a.628.628,0,1,1,.13-1.25l5.6.61A.641.641,0,0,1,102.1,238.22Z" fill="#004ecb"/><path d="M93.95,226.07a.6.6,0,0,1,.31-.4.626.626,0,0,1,.85.26l2.67,4.96a.629.629,0,0,1-1.11.59L94,226.52A.7.7,0,0,1,93.95,226.07Z" fill="#004ecb"/><path d="M113,272.77c-.36.31-.7.6-1.01.86l-.74-1.88a.585.585,0,0,1,0-.45.61.61,0,0,1,.36-.36.619.619,0,0,1,.81.35Z" fill="#004ecb"/><path d="M61.49,263.23a.644.644,0,0,1-.04-.51.623.623,0,0,1,.8-.38l5.3,1.91a.626.626,0,0,1-.42,1.18l-5.3-1.91A.611.611,0,0,1,61.49,263.23Z" fill="#004ecb"/><path d="M64.09,270.39a.639.639,0,0,1,.47.21.632.632,0,0,1-.05.89l-4.22,3.73a.63.63,0,1,1-.84-.94l4.22-3.73A.614.614,0,0,1,64.09,270.39Z" fill="#004ecb"/><path d="M71.74,276.32a.625.625,0,0,1-.59,1.01l-5.55-.95a.624.624,0,0,1,.21-1.23l5.55.95A.6.6,0,0,1,71.74,276.32Z" fill="#004ecb"/><path d="M76.38,223.57a.621.621,0,0,1,.08-.51.631.631,0,0,1,.87-.19l4.73,3.05a.63.63,0,1,1-.68,1.06l-4.73-3.05A.576.576,0,0,1,76.38,223.57Z" fill="#004ecb"/><path d="M108.69,227.17a.644.644,0,0,1,.51-.04.623.623,0,0,1,.38.8l-1.88,5.31a.626.626,0,1,1-1.18-.42l1.88-5.31A.575.575,0,0,1,108.69,227.17Z" fill="#004ecb"/><path d="M106.16,220.25l-2.91,3.73a.627.627,0,1,1-.99-.77l2.66-3.41C105.34,219.95,105.76,220.1,106.16,220.25Z" fill="#004ecb"/><path d="M77.7,271.79a.519.519,0,0,0,.39.34.572.572,0,0,0,.26-.01,29.638,29.638,0,0,1,18.8.99,32.017,32.017,0,0,0,12.71,2.72c.02-.2.03-.4.05-.58a.148.148,0,0,1,.01-.07s.2-.13.54-.37a30.586,30.586,0,0,1-12.91-2.65,30.185,30.185,0,0,0-19.51-1.02A.513.513,0,0,0,77.7,271.79Z" fill="#004ecb"/><path d="M99.62,218.11c-1.2,1.86-3.68,3.97-8.69,3.6-6.92-.5-11.47-7.1-13.06-9.81.22-.01.33-.01.33-.01Z" fill="#004ecb"/><path d="M92.27,230.35c.2.04.41.07.61.09a5.335,5.335,0,0,0,4.6-1.65c3.33-3.63,1.96-11.92,1.9-12.27a.512.512,0,1,0-1.01.17c.01.08,1.34,8.14-1.65,11.41a4.287,4.287,0,0,1-3.76,1.32c-6.7-.54-14.21-17.56-14.29-17.73a.515.515,0,0,0-.94.42C78.04,212.8,85.16,228.91,92.27,230.35Z" fill="#fff"/><path d="M113.14,223.66a37.432,37.432,0,0,0,3.94,18.85c-.07-1.26-.11-2.52-.1-3.79v-.13c0-.13.01-.26.01-.39C117.11,230.77,117.84,227,113.14,223.66Z" fill="#ff9b79"/><path d="M73.74,232.31c-2.46,9.48-11.44,17.09-17.59,14.72-.07-.53-.15-1.06-.23-1.6-.05-.35-.1-.69-.16-1.04-.39-2.58-.85-5.16-1.38-7.66-2.28-10.93-.68-22.4,10.4-23.76.8-.1,1.6-.19,2.37-.27C72.71,215.06,76.57,221.39,73.74,232.31Z" fill="#ff9b79"/><path d="M75.01,225.08l14.4,52.65-5.13-5.92a25.829,25.829,0,0,0,6.54,2.33,47.619,47.619,0,0,0,7.86,1.01c2.78.14,5.67.12,8.63,0s5.98-.35,9.05-.61h.02a8.232,8.232,0,0,1,2,16.33c-3.17.5-6.39.98-9.69,1.36s-6.69.67-10.19.75a64.532,64.532,0,0,1-10.89-.6,44.952,44.952,0,0,1-11.43-3.16,8.962,8.962,0,0,1-4.95-5.37l-.18-.55L53.78,231.53a11.106,11.106,0,1,1,21.07-7.03C74.89,224.67,74.96,224.89,75.01,225.08Z" fill="#ff9b79"/><path d="M81.45,276.04a.425.425,0,0,1-.37-.22.419.419,0,0,1,.16-.58,17.944,17.944,0,0,1,6.58-2.11.427.427,0,0,1,.46.39.433.433,0,0,1-.39.46,17.362,17.362,0,0,0-6.22,2A.487.487,0,0,1,81.45,276.04Z" fill="#f56c63"/><path d="M86.68,274.14a.428.428,0,0,1-.22-.06,11.336,11.336,0,0,0-4.41-1.39.442.442,0,0,1-.4-.46.435.435,0,0,1,.46-.4,11.98,11.98,0,0,1,4.79,1.51.423.423,0,0,1,.14.59A.408.408,0,0,1,86.68,274.14Z" fill="#f56c63"/><path d="M99.52,246.39c6.37,1.29,9.16-5.3,9.19-5.36a.513.513,0,1,0-.95-.39c-.1.25-2.5,5.87-8.03,4.75-5.8-1.18-16.63-12.6-16.74-12.71a.509.509,0,1,0-.74.7C82.69,233.85,93.4,245.15,99.52,246.39Z" fill="#004ecb"/><path d="M89.5,204.92s-10.22-1.93-13.11-12.24c-2.74-9.82-.63-14.92,2.22-20.23,2.15-4,8.97-9.4,18.53-7.46,9.66,1.96,16.87,6.91,17.94,14.85C117.09,194.7,105.1,212.82,89.5,204.92Z" fill="#001030"/><path d="M76.88,194.27a.529.529,0,0,1-.46-.27,23.167,23.167,0,0,1-.92-18.24,16.69,16.69,0,0,1,9.92-10.47,17.777,17.777,0,0,1,6.69-1.23.536.536,0,1,1-.05,1.07h0a17.231,17.231,0,0,0-6.29,1.18,15.477,15.477,0,0,0-9.26,9.82,22.413,22.413,0,0,0,.84,17.36.529.529,0,0,1-.2.73A.857.857,0,0,1,76.88,194.27Z" fill="#ffb028"/><path d="M109.33,194.44s3.33-2.63,4.2.85-1.59,9.66-5.47,7.79Z" fill="#f56c63"/><path d="M106.09,200.83a5.305,5.305,0,0,0-3.49,3.83,5.012,5.012,0,1,0,5.91-3.92.09.09,0,0,1-.05-.01.8.8,0,0,0,.14.83,4.039,4.039,0,0,1,1.47.72,4.233,4.233,0,1,1-6.71,2.53,4.137,4.137,0,0,1,3.12-3.22Z" fill="#ffb028"/><path d="M99.25,209.35l-1.39,8.71s-6.52,6.66-18.43-5.29c3.2-2.38,4.42-7.9,4.04-11.47a17.1,17.1,0,0,1,2.39,1.87,7.979,7.979,0,0,0,1,.7C90.01,206.01,94.83,208.8,99.25,209.35Z" fill="#ff9b79"/><path d="M99.25,209.35l-.66,4.13c-3.57-1.59-9.89-5-12.74-10.3.31.22.64.46,1,.7C90.01,206.01,94.83,208.8,99.25,209.35Z" fill="#363638"/><path d="M112.56,192.34c-.19.92-.36,1.8-.53,2.63-.19.91-.37,1.76-.54,2.56-1.32,6.03-2.41,9.26-4.16,10.47-8.89,6.12-23.36-6.27-23.83-6.67l-.01-.01q-.015-1.065,0-2.1a54.681,54.681,0,0,1,2.69-16.01,12.3,12.3,0,0,1,10.23-10.39c5.51-.83,9.65,2.36,12.24,3.77C112.56,178.73,114.09,184.65,112.56,192.34Z" fill="#ff9b79"/><path d="M86.47,177.74s6.22-11.97,18.64-8.63,13.08,9.11,13.29,11.99-6.43-2.22-6.43-2.22-.23,5.77-2.44,3.99c-2.72-2.18-5.76-6.88-5.76-6.88s-7.39,7.27-14.42,5.31C85.36,180.18,86.47,177.74,86.47,177.74Z" fill="#001030"/><path d="M101.72,204.08a4.211,4.211,0,0,1-2.78-1.17.446.446,0,0,1,.64-.62,3.066,3.066,0,0,0,3.03.75.443.443,0,1,1,.28.84A3.6,3.6,0,0,1,101.72,204.08Z" fill="#f56c63"/><path d="M98,196.83s5.99,1.77,9.09,1.77c0,0-1.55,4.44-5.99,2.88A4.562,4.562,0,0,1,98,196.83Z" fill="#fff"/><path d="M109.12,184.37s-1.56-.16-1.3,1.35,3.62.59,5.29,3.61C113.11,189.32,114.72,186.16,109.12,184.37Z" fill="#001030"/><path d="M102.21,182.97s1.49.46.68,1.75-3.57-.87-6.28,1.26C96.6,185.98,96.35,182.43,102.21,182.97Z" fill="#001030"/><path d="M99.51,193.77c-.14.71-1.73.99-3.53.63s-3.16-1.24-3.01-1.95,1.73-.99,3.53-.63S99.65,193.06,99.51,193.77Z" fill="#f56c63"/><g opacity="0.8"><path d="M112.02,194.97c-.19.91-.37,1.76-.54,2.56-1.64-.4-2.83-1.21-2.69-1.88S110.34,194.69,112.02,194.97Z" fill="#f56c63"/></g><path d="M100.78,190.2c-.2.98-.8,1.68-1.35,1.57s-.83-.99-.63-1.97.8-1.68,1.35-1.57S100.98,189.22,100.78,190.2Z" fill="#363638"/><path d="M110.45,192.16c-.2.98-.8,1.68-1.35,1.57s-.83-.99-.63-1.97.8-1.68,1.35-1.57S110.65,191.18,110.45,192.16Z" fill="#363638"/><path d="M105.46,194.78a4.116,4.116,0,0,0,.83.08.414.414,0,0,0,.29-.15.406.406,0,0,0,.09-.32l-.62-4.56a.409.409,0,1,0-.81.11l.56,4.06a3.238,3.238,0,0,1-1.58-.69.412.412,0,1,0-.53.63A3.929,3.929,0,0,0,105.46,194.78Z" fill="#363638"/><path d="M87.47,198.01c-.07.1-1.96,2.82-3.98,3.32h0l-.01-.01c-.01-.71-.01-1.41,0-2.11A7.541,7.541,0,0,0,87.47,198.01Z" fill="#363638"/><path d="M87.05,190.86s-2.84-6.04-6.54-2.5c-3.05,2.92-.38,12.68,4.9,10.59Z" fill="#ff9b79"/><path d="M80.05,196.07a5.305,5.305,0,0,0-3.49,3.83,5.012,5.012,0,1,0,5.91-3.92.09.09,0,0,1-.05-.01.8.8,0,0,0,.14.83,4.039,4.039,0,0,1,1.47.72,4.233,4.233,0,1,1-6.71,2.53,4.137,4.137,0,0,1,3.12-3.22Z" fill="#ffb028"/><path d="M85.2,197.27c.01,0,.03.01.04.01a.415.415,0,0,0,.45-.37,7.705,7.705,0,0,0-3.17-6.97.412.412,0,1,0-.45.69h0a6.872,6.872,0,0,1,2.81,6.21A.386.386,0,0,0,85.2,197.27Z" fill="#363638"/><path d="M81.94,194.07a.371.371,0,0,0,.27-.04,3.282,3.282,0,0,1,2.27-.38.411.411,0,1,0,.36-.74c-1.15-.55-2.82.29-3,.39a.4.4,0,0,0-.17.55A.336.336,0,0,0,81.94,194.07Z" fill="#363638"/><path d="M90.72,180.62s-3.83,10.39-4.04,12.49c-.29,2.85-4.06-6.93-.26-15.29Z" fill="#001030"/><path d="M154.69,401H138.93s-3.65-17.5-4.87-27.31-1.86-33.07-1.86-33.07-12.56,4.08-38.86,2.54c-58.27-3.4-36.17-46.21-36.17-46.21,1.97,2.72,16.73,6.47,24.98,7.77,25.3,2.43,44.53,6.72,57.69,12.4a65.211,65.211,0,0,1,8.46,4.34c3.17,1.96,5.16,7.89,6.36,15.7C158.24,360.63,154.69,401,154.69,401Z" fill="#0c375a"/><path d="M140.88,392.57a.556.556,0,0,1-.55-.45c-2.27-11.26-3.04-25.27-3.65-36.52-.51-9.33-.99-18.15-2.19-19.21-.97-.86-5-.19-10.11.66-10.15,1.69-25.5,4.23-42.42.3-9.22-2.14-16-6.62-20.14-13.31-7.15-11.53-3.89-25.83-3.86-25.97a.565.565,0,1,1,1.1.26c-.03.14-3.18,14,3.72,25.12,3.98,6.42,10.52,10.72,19.43,12.8,16.71,3.89,31.92,1.36,41.98-.31,6.03-1,9.67-1.6,11.04-.39,1.48,1.31,1.9,7.76,2.57,19.99.61,11.22,1.37,25.18,3.63,36.36a.561.561,0,0,1-.44.66C140.95,392.56,140.91,392.57,140.88,392.57Z" fill="#3c6e91"/><path d="M154.99,392.86h-.01l-17.53-.38a.562.562,0,0,1-.55-.58.555.555,0,0,1,.58-.55l17.53.38a.562.562,0,0,1,.55.58A.579.579,0,0,1,154.99,392.86Z" fill="#3c6e91"/><path d="M154.25,421.19H143.13l-2.15-13.05L139.81,401h13.82l.22,7.14Z" fill="#ff9b79"/><path d="M154.25,421.19H143.13l-1.6-9.71-.55-3.34h12.87l.11,3.46Z" fill="#ffb028"/><path d="M153.96,411.6l-12.43-.12-.55-3.34h12.87Z" fill="#dc7f21"/><path d="M181.71,438.77H139.63a5.966,5.966,0,0,1-.55-2.34c-.26-3.56.87-9.24,1.43-12.82.07-.42.13-.81.17-1.16a12.08,12.08,0,0,0,.13-1.46,2.148,2.148,0,0,1,2.59-2.42c4.26,4.18,9.08-2.08,11.9-.03,0,0,.11.08.37.29.24.19.6.48,1.09.89.72.6,1.72,1.47,3.09,2.7,3.34,3.01,9.02,4.99,13.86,7.01.62.26,1.19.52,1.72.77.4.19.78.39,1.14.58,3.95,2.14,5.21,4.18,5.5,5.66A3.323,3.323,0,0,1,181.71,438.77Z" fill="#0076fa"/><path d="M176.56,430.77c-1.08.86-3.49,2.59-5.43,2.59a2.006,2.006,0,0,1-.25-.01c-1.37-.11-6.38-2.58-10.46-4.82-2.34-1.29-4.47-2.55-6.01-3.56-2.52-1.66-2.96-2.29-3.05-2.73-.37-1.66,2.38-2.82,4.3-3.42.24.19.6.48,1.09.89-2.39.65-4.36,1.67-4.26,2.26.23.49,2.72,2.39,8.68,5.65,4.54,2.49,8.85,4.5,9.81,4.58,1.3.1,3.2-1.07,4.44-2C175.82,430.38,176.2,430.58,176.56,430.77Z" fill="#004ecb"/><path d="M181.71,438.77H139.63a5.966,5.966,0,0,1-.55-2.34h42.98A3.309,3.309,0,0,1,181.71,438.77Z" fill="#004ecb"/><path d="M143.92,438.77h-1.25a9.242,9.242,0,0,0,2.26-6.74,11.86,11.86,0,0,0-4.43-8.42c.07-.42.13-.81.17-1.16a12.866,12.866,0,0,1,5.26,9.53A10.208,10.208,0,0,1,143.92,438.77Z" fill="#004ecb"/><path d="M159.12,424.89a.695.695,0,0,1-.16-1.37l2.63-.65a.695.695,0,0,1,.33,1.35l-2.63.65A1.116,1.116,0,0,1,159.12,424.89Z" fill="#fff"/><path d="M156.51,422.7a.695.695,0,0,1-.16-1.37l2.63-.65a.695.695,0,0,1,.33,1.35l-2.63.65A1.116,1.116,0,0,1,156.51,422.7Z" fill="#fff"/><path d="M161.75,426.41a.695.695,0,0,1-.16-1.37l2.63-.65a.695.695,0,0,1,.33,1.35l-2.63.65A.525.525,0,0,1,161.75,426.41Z" fill="#fff"/><path d="M164.38,427.88a.695.695,0,0,1-.16-1.37l2.63-.65a.695.695,0,0,1,.33,1.35l-2.63.65A.525.525,0,0,1,164.38,427.88Z" fill="#fff"/><path d="M167.24,429.24a.695.695,0,0,1-.16-1.37l2.63-.65a.695.695,0,0,1,.33,1.35l-2.63.65A.984.984,0,0,1,167.24,429.24Z" fill="#fff"/><path d="M170.35,430.4a.695.695,0,0,1-.16-1.37l2.63-.65a.695.695,0,0,1,.33,1.35l-2.63.65A.984.984,0,0,1,170.35,430.4Z" fill="#fff"/><path d="M212.75,296.32v3.49c0,2.01-1.21,3.64-2.72,3.64H21.2c-1.5,0-2.71-1.63-2.71-3.64v-3.49c0-2.01,1.21-3.64,2.71-3.64H210.04C211.54,292.68,212.75,294.31,212.75,296.32Z" fill="#00b570"/><rect width="194.27" height="1.6" transform="translate(18.48 297.43)" fill="#007d55"/><path d="M207.08,312.44H29.57A1.44,1.44,0,0,1,28.13,311v-7.59H208.52V311A1.44,1.44,0,0,1,207.08,312.44Z" fill="#007d55"/><rect width="158.75" height="6.19" transform="translate(40.36 356.99)" fill="#007d55"/><path d="M28.91,439.87,59.65,312.44H48.85L18.12,439.87Z" fill="#00b570"/><path d="M210.34,439.87,179.61,312.44H190.4l30.73,127.43Z" fill="#00b570"/><rect width="3.37" height="25.42" transform="matrix(0.988, -0.151, 0.151, 0.988, 32.384, 263.903)" fill="#ffb028"/><path d="M35.73,263.39l-3.33.51.73-2.55.38-1.32.76,1.15Z" fill="#ff9b79"/><rect width="3.37" height="1.85" transform="matrix(0.988, -0.151, 0.151, 0.988, 35.958, 287.207)" fill="#363638"/><path d="M39.58,290l-2.89.44a.233.233,0,0,1-.26-.19l-.19-1.23,3.33-.51.19,1.23A.214.214,0,0,1,39.58,290Z" fill="#fd615b"/><path d="M34.27,261.18l-1.14.17.38-1.32Z" fill="#363638"/><rect width="3.37" height="1.32" transform="matrix(0.988, -0.151, 0.151, 0.988, 35.77, 285.89)" fill="#dc7f21"/><path d="M33.42,265.01l2.85,18.61a.258.258,0,0,0,.29.22h0a.258.258,0,0,0,.22-.29l-2.85-18.61a.258.258,0,0,0-.29-.22h0A.245.245,0,0,0,33.42,265.01Z" fill="#dc7f21"/><path d="M34.72,264.81l2.85,18.61a.258.258,0,0,0,.29.22h0a.258.258,0,0,0,.22-.29l-2.85-18.61a.258.258,0,0,0-.29-.22h0A.251.251,0,0,0,34.72,264.81Z" fill="#dc7f21"/><rect width="3.37" height="25.42" transform="translate(38.389 263.517) rotate(-0.189)" fill="#00b570"/><path d="M41.76,263.5l-3.38.01,1.11-2.4.57-1.25.58,1.24Z" fill="#ff9b79"/><rect width="3.37" height="1.85" transform="translate(38.458 287.087) rotate(-0.189)" fill="#363638"/><path d="M41.62,290.39l-2.92.01a.222.222,0,0,1-.22-.22v-1.25l3.37-.01v1.25A.238.238,0,0,1,41.62,290.39Z" fill="#fd615b"/><path d="M40.64,261.1l-1.15.01.57-1.25Z" fill="#363638"/><rect width="3.37" height="1.32" transform="translate(38.459 285.757) rotate(-0.189)" fill="#007d55"/><path d="M39.23,264.76l.06,18.82a.265.265,0,0,0,.26.26h0a.265.265,0,0,0,.26-.26l-.06-18.82a.265.265,0,0,0-.26-.26h0A.258.258,0,0,0,39.23,264.76Z" fill="#007d55"/><path d="M40.55,264.76l.06,18.82a.265.265,0,0,0,.26.26h0a.265.265,0,0,0,.26-.26l-.06-18.82a.265.265,0,0,0-.26-.26h0A.258.258,0,0,0,40.55,264.76Z" fill="#007d55"/><rect width="25.42" height="3.37" transform="translate(40.67 288.534) rotate(-81.918)" fill="#0076fa"/><path d="M47.57,263.86l-3.34-.47,1.44-2.23.75-1.15.39,1.31Z" fill="#ff9b79"/><rect width="3.37" height="1.85" transform="translate(40.932 286.731) rotate(8.082)" fill="#363638"/><path d="M43.57,290.45l-2.89-.41a.223.223,0,0,1-.19-.25l.18-1.24,3.34.47-.18,1.24A.239.239,0,0,1,43.57,290.45Z" fill="#fd615b"/><path d="M46.81,261.32l-1.14-.16.75-1.15Z" fill="#363638"/><rect width="1.32" height="3.37" transform="translate(40.935 286.72) rotate(-81.912)" fill="#004ecb"/><path d="M44.89,264.74l-2.65,18.64a.258.258,0,0,0,.22.29h0a.258.258,0,0,0,.29-.22l2.65-18.64a.258.258,0,0,0-.22-.29h0A.266.266,0,0,0,44.89,264.74Z" fill="#004ecb"/><path d="M46.19,264.93l-2.65,18.64a.258.258,0,0,0,.22.29h0a.258.258,0,0,0,.29-.22L46.7,265a.258.258,0,0,0-.22-.29h0A.258.258,0,0,0,46.19,264.93Z" fill="#004ecb"/><path d="M48.67,273.56l-.18,1.36-.16,1.24-.24,1.88-.16,1.22-.24,1.9-.16,1.21-.25,1.91-.15,1.19-.25,1.93-.15,1.17-.25,1.95-.15,1.16-.13,1H32.95l-.13-1-.15-1.16-.25-1.95-.15-1.17-.25-1.93-.16-1.19-.24-1.91-.16-1.21-.24-1.9-.16-1.22-.24-1.88-.16-1.24-.18-1.36Z" fill="#fd615b"/><path d="M48.49,274.92l-.16,1.24H30.82l-.16-1.24Z" fill="#ce101d"/><path d="M48.09,278.04l-.16,1.22H31.22l-.16-1.22Z" fill="#ce101d"/><path d="M47.69,281.16l-.16,1.21H31.62l-.16-1.21Z" fill="#ce101d"/><path d="M47.28,284.28l-.15,1.19H32.02l-.16-1.19Z" fill="#ce101d"/><path d="M46.88,287.4l-.15,1.17H32.42l-.15-1.17Z" fill="#ce101d"/><path d="M46.48,290.52l-.15,1.16H32.82l-.15-1.16Z" fill="#ce101d"/><path d="M211.65,225.11l-11.3,47.78-.3,1.26-.76,3.22a3.09,3.09,0,0,1-3,2.38H120.18a3.086,3.086,0,0,1-3-3.8l12.36-52.26a3.081,3.081,0,0,1,3-2.37h76.11A3.074,3.074,0,0,1,211.65,225.11Z" fill="#0c375a"/><path d="M200.35,272.89l-.29,1.25H121.03v-1.25Z" fill="#001030"/><path d="M150.85,233.13a7.727,7.727,0,0,1-7.28,6.13,4.95,4.95,0,0,1-4.99-6.13,7.727,7.727,0,0,1,7.28-6.13A4.946,4.946,0,0,1,150.85,233.13Z" fill="#ffb028"/><path d="M143.93,231.96c-.13.68-.47,1.23-.76,1.23s-.43-.55-.3-1.23.47-1.23.76-1.23S144.05,231.28,143.93,231.96Z" fill="#363638"/><path d="M147.13,231.96c-.13.68-.47,1.23-.76,1.23s-.43-.55-.3-1.23.47-1.23.76-1.23S147.25,231.28,147.13,231.96Z" fill="#363638"/><path d="M144.22,236.12a2.718,2.718,0,0,1-2.75-2.66.34.34,0,0,1,.26-.32.221.221,0,0,1,.28.2,2.259,2.259,0,0,0,2.31,2.24,3.613,3.613,0,0,0,3.14-2.24.337.337,0,0,1,.36-.2.219.219,0,0,1,.14.32C147.95,233.48,146.86,236.12,144.22,236.12Z" fill="#363638"/><path d="M174.67,252.57a6.82,6.82,0,0,1-6.61,5.96,5.236,5.236,0,0,1-5.3-5.96,6.82,6.82,0,0,1,6.61-5.96A5.236,5.236,0,0,1,174.67,252.57Z" fill="#001030"/><path d="M135.55,221.31l-13.16,58.43h-2.22a3.086,3.086,0,0,1-3-3.8l12.36-52.26a3.09,3.09,0,0,1,3-2.38h3.02Z" fill="#001030"/><path d="M157.6,279.74l-2.31,12.98h7.63l2.3-12.98Z" fill="#fff"/><path d="M143.88,290.49l1.56-2.19a2.986,2.986,0,0,1,2.42-1.25h20.91a2.955,2.955,0,0,1,2.63,1.59l1.05,2.01a1.415,1.415,0,0,1-1.25,2.07H145.03A1.409,1.409,0,0,1,143.88,290.49Z" fill="#fff"/><path d="M100.31,292.72h62.81l.68-2.37a2.334,2.334,0,0,0-2.24-2.98H103.6a2.334,2.334,0,0,0-2.24,1.69Z" fill="#fff"/><path d="M182.33,205.71l-27.11-.02a2.3,2.3,0,0,1-2.29-2.29l.01-16.4a2.3,2.3,0,0,1,2.29-2.29l27.11.02a2.3,2.3,0,0,1,2.29,2.29l-.01,16.4A2.29,2.29,0,0,1,182.33,205.71Z" fill="#fd615b"/><path d="M181.01,202.56l-2.53,9.57-4.43-8.99Z" fill="#fd615b"/><path d="M175.8,193.67c-.57,3.58-7.26,8.07-7.26,8.07s-6.44-4.49-6.81-8.08c-.4-3.89,4.2-5.08,7.09-2.14C171.88,188.58,176.42,189.78,175.8,193.67Z" fill="#fff"/><path d="M490.29,310.84H463.53c-3.64,0-6.86-2.78-7.99-6.9l-11.35-41.5c-.46-1.7.53-3.46,2.03-3.6a332.065,332.065,0,0,1,61.38-.01c1.5.14,2.49,1.9,2.03,3.6l-11.35,41.51C497.15,308.06,493.93,310.84,490.29,310.84Z" fill="#fc5f2d"/><path d="M507.25,261.86c0,1.1-13.5,2-30.16,2s-30.16-.9-30.16-2,13.5-2,30.16-2S507.25,260.75,507.25,261.86Z" fill="#0c375a"/><path d="M511.25,205.76c-10.85-2.86-27.44,19.67-32.47,41.63v-32c2.53-4.49,7.36-11.24,16.12-18.38,13.63-11.1,26.17-25.35,15.3-28.21-10.19-2.68-25.43,17.01-31.42,37.6V165.3a43.6,43.6,0,0,1,9.23-10.05c8.59-7,16.5-15.97,9.64-17.78-5.95-1.57-14.62,8.96-18.87,20.83V145a63.283,63.283,0,0,1,4.42-16.02c6.32-13.94,9.73-28.3,1.4-27.24s-13.74,25.9-9.18,44.96v6.85c-3.08-13.95-13.65-28.39-20.54-26.58-6.85,1.8,1.05,10.78,9.64,17.78,6.54,5.33,9.6,10.31,10.9,12.99v32.37c-4.94-22.07-21.64-44.86-32.55-41.99-10.87,2.86,1.67,17.11,15.3,28.21,10.3,8.39,15.16,16.25,17.25,20.52v38.82c-5.28-21.67-21.55-43.54-32.26-40.72-10.87,2.86-1.55,13.27,13.77,25.87a72.4,72.4,0,0,1,18.49,22.5v18.29a5.65,5.65,0,0,0,3.36,0v-7.28c2.13-4.31,7-12.08,17.17-20.36C509.58,222.87,522.12,208.63,511.25,205.76Z" fill="#00b570"/><ellipse cx="62.5" cy="6.18" rx="62.5" ry="6.18" transform="translate(415.51 430.01)" fill="#d3e8ee"/><path d="M516.58,391.54H437.07a2.411,2.411,0,0,1-2.41-2.41v-1.86a2.411,2.411,0,0,1,2.41-2.41h79.51a2.411,2.411,0,0,1,2.41,2.41v1.86A2.411,2.411,0,0,1,516.58,391.54Z" fill="#001030"/><path d="M438.36,310.85h77.09a2.322,2.322,0,0,1,2.32,2.32v9.47a2.322,2.322,0,0,1-2.32,2.32H438.36a2.322,2.322,0,0,1-2.32-2.32v-9.47A2.315,2.315,0,0,1,438.36,310.85Z" fill="#001030"/><path d="M465.57,324.96l-2.35,7.57L430.54,437.86h-6.38l20.72-103.18,1.95-9.72Z" fill="#0c375a"/><path d="M529.85,437.86h-6.39L489.82,329.41l-1.38-4.45h18.73l.47,2.36h.01Z" fill="#0c375a"/><path d="M516.58,377.01H437.07a2.411,2.411,0,0,1-2.41-2.41v-1.86a2.411,2.411,0,0,1,2.41-2.41h79.51a2.411,2.411,0,0,1,2.41,2.41v1.86A2.411,2.411,0,0,1,516.58,377.01Z" fill="#001030"/></g></svg>